# xmcd
#
# Track frame offsets:
#	150
#	15771
#	34167
#	51300
#	65201
#	81675
#	94792
#	111344
#	123100
#	136211
#	155860
#	172300
#	188423
#	201698
#	215819
#
# Disc length: 3077
#
# Revision: 3
# Processed by: cddbd v1.5.1PL0 Copyright (c) Steve Scherf et al.
# Submitted via: VisiTrax 2.9.9.209 - For more info visit www.synapsa.com
# Normalized: r2:DSETVAR1
#
DISCID=e70c030f
DTITLE=Various Artist - CDX 344 may 2004
DYEAR=2004
DGENRE=Country
TTITLE0=Carolyn Dawn Johnson - Die of a broken heart
TTITLE1=Kenny Chesney - I go back
TTITLE2=Kenny Rogers and Whitney Duncan - My world is over
TTITLE3=Buddy Jewell - One step at a time
TTITLE4=Blue County - That's cool
TTITLE5=Travis Tritt - The girl's gone wild
TTITLE6=Scotty Emerick - The watch
TTITLE7=Ken Mellons - Climb my tree
TTITLE8=David Frizzell - It takes me all night long
TTITLE9=Daniel Lee Martin - I can't let go
TTITLE10=Mandy - It wasn't me
TTITLE11=Pete Schlegel - Leavin' ain't as easy as it sounds
TTITLE12=Jill Markey - Simple things
TTITLE13=Maggie Brown - Used cars
TTITLE14=Brad Cotter - I meant to
EXTD=
EXTT0=
EXTT1=
EXTT2=
EXTT3=
EXTT4=
EXTT5=
EXTT6=
EXTT7=
EXTT8=
EXTT9=
EXTT10=
EXTT11=
EXTT12=
EXTT13=
EXTT14=
PLAYORDER=
